<svg width="226" height="40" viewBox="0 0 226 40" fill="none" xmlns="http://www.w3.org/2000/svg">
<path fill-rule="evenodd" clip-rule="evenodd" d="M75.2289 9.13062V12.5436H78.7404V9.13062H75.2289ZM75.2289 15.3951V29.17H78.7404V15.3951H75.2289ZM64.9116 12.4303V29.17H68.5664V12.4303H74.0289V9.13062H59.4492V12.4303H64.9116ZM92.2392 29.17V27.6187C91.0193 28.8302 89.4389 29.5098 87.7399 29.5098C83.9468 29.5098 80.5784 26.6288 80.5784 22.285C80.5784 17.9413 83.9468 15.0602 87.7399 15.0602C89.3549 15.0602 90.8514 15.6807 92.0713 16.8085V9.13062H95.5829V29.17H92.2392ZM92.0713 22.482V22.1126C91.9873 19.7438 90.2883 18.1629 88.0807 18.1629C85.8186 18.1629 84.09 19.857 84.09 22.285C84.09 24.713 85.8186 26.4071 88.0807 26.4071C90.2883 26.4022 91.9873 24.8213 92.0713 22.482ZM104.309 15.06C100.432 15.06 97.459 18.0248 97.459 22.2848C97.459 26.5449 100.378 29.5096 104.932 29.5047C106.858 29.5047 108.641 28.8596 109.969 27.9829V24.8507L105.159 26.6286C102.892 26.6286 101.252 25.5599 100.941 23.4963H110.962V20.4774C110.256 17.1777 107.821 15.06 104.309 15.06ZM107.707 20.8123H100.911C101.227 18.9802 102.526 17.9903 104.309 17.9903C106.092 17.9903 107.366 18.8916 107.707 20.8123ZM112.963 34.8089V15.3949H116.301V16.9758C117.521 15.7594 119.107 15.0551 120.801 15.0551C124.594 15.0551 127.962 17.9362 127.962 22.2799C127.962 26.6237 124.594 29.5048 120.801 29.5048C119.186 29.5048 117.689 28.8842 116.469 27.781V34.8089H112.963ZM124.451 22.2849C124.451 19.8569 122.727 18.1627 120.46 18.1627C118.252 18.1627 116.553 19.7436 116.469 22.1125V22.2849C116.469 24.7128 118.198 26.407 120.46 26.407C122.727 26.4021 124.451 24.7079 124.451 22.2849ZM136.51 15.06C132.549 15.06 129.008 17.9361 129.008 22.2848C129.008 26.6286 132.544 29.5096 136.51 29.5096C140.471 29.5096 144.012 26.6286 144.012 22.2848C144.012 17.9411 140.471 15.06 136.51 15.06ZM136.51 18.1627C138.772 18.1627 140.501 19.8568 140.501 22.2848C140.501 24.7079 138.772 26.402 136.51 26.407C134.248 26.407 132.52 24.7128 132.52 22.2848C132.52 19.8568 134.248 18.1627 136.51 18.1627ZM145.045 22.2848C145.045 17.9361 148.586 15.06 152.547 15.06C156.508 15.06 160.049 17.9411 160.049 22.2848C160.049 26.6286 156.508 29.5096 152.547 29.5096C148.581 29.5096 145.045 26.6286 145.045 22.2848ZM156.537 22.2848C156.537 19.8568 154.809 18.1627 152.547 18.1627C150.285 18.1627 148.556 19.8568 148.556 22.2848C148.556 24.7128 150.285 26.407 152.547 26.407C154.809 26.402 156.537 24.7079 156.537 22.2848ZM161.901 9.13062V29.17H165.413V9.13062H161.901ZM174.408 29.17V9.13062H176.759V26.9981H185.703V29.17H174.408ZM191.832 20.9551C188.75 21.093 186.597 22.3637 186.597 25.2447C186.597 27.9583 188.552 29.5097 191.358 29.5048C193.368 29.5048 195.092 28.5444 196 26.8502L196.509 29.1649H198.83L198.035 25.8062V19.9652C198.035 17.0005 196.025 15.0551 192.711 15.0551C190.898 15.0551 189.086 15.6166 187.757 16.2666V18.5272L192.429 17.0596C194.464 17.0596 195.768 18.1627 195.768 19.8569V20.7877L191.832 20.9551ZM195.768 22.6789V23.8067C195.684 26.2051 193.901 27.5053 191.832 27.5003C189.99 27.5003 188.859 26.6828 188.859 25.2447C188.859 23.6934 190.019 22.93 191.945 22.8463L195.768 22.6789ZM201.23 29.17V9.13062H203.493V17.6556C204.737 15.991 206.663 15.0602 208.703 15.0602C212.437 15.0602 215.781 17.9413 215.781 22.285C215.781 26.6288 212.442 29.5098 208.703 29.5098C206.55 29.5098 204.569 28.4953 203.325 26.6879V29.17H201.23ZM213.459 22.285C213.459 19.3498 211.281 17.1188 208.481 17.1188C205.735 17.1188 203.581 19.207 203.497 22.0585V22.285C203.497 25.2202 205.676 27.4512 208.481 27.4512C211.281 27.4463 213.459 25.2202 213.459 22.285ZM217.12 26.0918V28.4065C218.34 29.0566 219.782 29.5097 221.249 29.5048C224.109 29.5048 225.862 28.0076 225.862 25.4959C225.862 22.7985 223.794 21.9029 221.984 21.119C220.575 20.5088 219.323 19.9663 219.323 18.6946C219.323 17.7047 220.059 17.0005 221.446 17.0005L225.101 18.3843V16.0401C224.222 15.5919 222.978 15.0551 221.422 15.0551C218.962 15.0551 217.15 16.4932 217.15 18.6946C217.15 21.3765 219.144 22.2407 220.93 23.0146C222.378 23.6419 223.689 24.2099 223.689 25.6387C223.689 26.9684 222.671 27.5299 221.283 27.5299L217.12 26.0918Z" fill="white"/>
<path d="M0.743842 22.1046C0.285714 21.4365 0.0394089 20.4983 0 19.3489C0.320197 8.61096 9.14286 0 19.9951 0C31.0443 0 40 8.93025 40 19.9531C40 20.8078 39.9409 21.6527 39.8325 22.4779C35.6059 16.0381 28.7488 14.2943 27.9409 14.1076C26 13.5378 24.1182 13.302 22.3498 13.4052C15.3498 13.8227 11.9458 17.2121 9.21182 19.9383C7.22168 21.9179 5.78325 23.3523 3.49754 23.3523C2.21675 23.3473 1.31527 22.9396 0.743842 22.1046ZM30.8522 26.4076L30.7931 26.3585C29.5271 25.2385 26.9064 23.3424 23.5369 23.2098C20.3448 23.0821 17.3202 24.5901 14.5567 27.6995C12.5025 30.0082 9.26108 32.6755 4.98522 33.1421C6 34.2867 7.14286 35.3133 8.39409 36.2024C11.67 35.1659 13.6502 33.2256 15.5813 31.3295C17.6601 29.291 19.8079 27.1886 23.2414 26.9823C26.5025 26.7858 29.9212 29.237 31.0197 32.5527C31.4631 33.8839 31.4975 35.2249 31.1576 36.5069C32.2759 35.7554 33.3103 34.8958 34.2512 33.9379C34.0591 29.0798 31.0394 26.555 30.8522 26.4076ZM28.1232 33.5056C27.4631 31.5015 25.3103 29.9099 23.4286 30.018C21.1379 30.1556 19.6355 31.6292 17.7291 33.4958C16.1478 35.048 14.3399 36.8164 11.7389 38.1181C14.2562 39.2577 17.0493 39.8963 19.9951 39.8963C28.5172 39.9012 28.7931 35.5343 28.1232 33.5056ZM27.2315 17.0696L27.1232 17.0402C25.5025 16.5588 23.9606 16.3574 22.5369 16.4458C16.6946 16.7946 13.9901 19.4864 11.3744 22.0947C9.25123 24.2119 7.05419 26.3978 3.50246 26.3978C2.55172 26.3978 1.68473 26.2455 0.906404 25.9459C1.37438 27.4244 2.00493 28.8244 2.78818 30.131C2.95566 30.1457 3.12315 30.1605 3.29557 30.1654C6.49261 30.2931 9.51232 28.7802 12.2759 25.6757C14.6158 23.0477 18.4877 19.958 23.6601 20.1643C27.9557 20.3362 31.2217 22.6695 32.798 24.0596C33.1232 24.3249 35.0837 26.0343 36.3054 29.1044C36.5222 29.6398 36.6946 30.1752 36.8374 30.7106C37.5961 29.5317 38.2365 28.2742 38.734 26.943C35.5074 18.9952 27.601 17.1482 27.2315 17.0696Z" fill="white"/>
</svg>
